#!OML:ASF F:\VICON\USERDATA\INSTALL\rory3\rory3.ASF
:FULLY-SPECIFIED
:DEGREES
3471
root 2.12143 17.7168 -4.73628 5.97811 -28.4844 2.83447
lowerback 7.16714 3.00666 0.521064
upperback 1.14429 4.1406 3.83499
thorax -3.07887 2.06329 3.26872
lowerneck -20.5484 -3.80881 -7.0867
upperneck 25.293 -5.19585 7.18447
head 12.1321 -2.09229 3.04454
rclavicle -1.03368e-014 -3.02153e-014
rhumerus 31.9945 31.1289 -70.6643
rradius 62.3437
rwrist 45.5413
rhand -36.0277 -8.65991
rfingers 7.12502
rthumb -9.13653 -38.442
lclavicle -1.03368e-014 -3.02153e-014
lhumerus 9.53966 25.977 63.274
lradius 60.7753
lwrist -5.92947
lhand -36.221 39.6886
lfingers 7.12502
lthumb -9.32305 69.4625
rfemur -30.5926 -4.62724 12.0493
rtibia 34.0993
rfoot -9.0538 -6.02037
rtoes 7.84636
lfemur -11.0414 1.66307 -26.1537
ltibia 24.8626
lfoot -16.8267 5.5435
ltoes -9.8115
3472
root 2.09907 17.7194 -4.73624 5.99971 -28.7827 2.82845
lowerback 7.20845 2.87368 0.44633
upperback 1.06895 3.96449 3.91358
thorax -3.18094 1.97782 3.40662
lowerneck -20.2263 -4.24074 -7.44756
upperneck 25.4878 -5.79912 7.39786
head 12.2177 -2.37651 3.09102
rclavicle 6.83819e-014 3.18055e-015
rhumerus 31.7241 31.2189 -70.7671
rradius 63.0629
rwrist 45.3077
rhand -36.0572 -8.45244
rfingers 7.12502
rthumb -9.16499 -38.2333
lclavicle 6.83819e-014 3.18055e-015
lhumerus 9.60706 25.8473 63.1351
lradius 61.1335
lwrist -6.18631
lhand -36.4379 40.2808
lfingers 7.12502
lthumb -9.53229 70.0452
rfemur -30.5415 -4.26609 12.1078
rtibia 33.9446
rfoot -9.28289 -5.9832
rtoes 9.01357
lfemur -10.9584 1.7002 -26.0955
ltibia 24.7457
lfoot -16.7793 5.80771
ltoes -9.06073
3473
root 2.07542 17.7219 -4.73344 6.01426 -29.1072 2.84805
lowerback 7.2479 2.7693 0.328608
upperback 0.976707 3.82312 3.96484
thorax -3.30164 1.91059 3.53692
lowerneck -19.8411 -4.73335 -7.77205
upperneck 25.6881 -6.52057 7.63473
head 12.3083 -2.7083 3.12061
rclavicle 1.12512e-013 2.54444e-014
rhumerus 31.1361 31.1274 -70.9915
rradius 64.0042
rwrist 45.106
rhand -36.0733 -8.57525
rfingers 7.12502
rthumb -9.18049 -38.3554
lclavicle 1.12512e-013 2.54444e-014
lhumerus 9.60025 25.5552 63.0079
lradius 61.5526
lwrist -6.42765
lhand -36.5228 40.315
lfingers 7.12502
lthumb -9.6142 70.0756
rfemur -30.5187 -3.99605 12.1592
rtibia 33.8233
rfoot -9.28512 -5.82869
rtoes 9.4644
lfemur -10.8516 1.88203 -26.0741
ltibia 24.6158
lfoot -16.7838 6.04805
ltoes -8.75104
3474
root 2.05127 17.7249 -4.72776 6.01952 -29.4306 2.86039
lowerback 7.2127 2.64882 0.307565
upperback 0.926305 3.66219 3.96303
thorax -3.32543 1.8314 3.56429
lowerneck -19.3775 -5.27861 -8.12743
upperneck 25.8239 -7.32963 7.91928
head 12.3751 -3.0784 3.15803
rclavicle -1.0297e-013 1.59028e-015
rhumerus 30.3806 30.9285 -71.2732
rradius 65.0878
rwrist 44.937
rhand -35.9786 -8.76844
rfingers 7.12502
rthumb -9.0892 -38.5526
lclavicle -1.0297e-013 1.59028e-015
lhumerus 9.56612 25.2096 62.8783
lradius 62.0037
lwrist -6.69196
lhand -36.7102 40.1161
lfingers 7.12502
lthumb -9.79508 69.8683
rfemur -30.4761 -3.74154 12.2115
rtibia 33.7398
rfoot -9.20127 -5.66323
rtoes 8.81777
lfemur -10.7068 1.92859 -26.0638
ltibia 24.4681
lfoot -16.7265 6.50006
ltoes -8.83488
3475
root 2.02748 17.7271 -4.72116 6.07221 -29.6867 2.89249
lowerback 7.11632 2.46389 0.238233
upperback 0.873128 3.41117 3.9852
thorax -3.31639 1.70824 3.65568
lowerneck -19.0395 -5.82273 -8.50756
upperneck 26.0891 -8.12383 8.15813
head 12.5229 -3.44661 3.1849
rclavicle 5.84427e-014 -2.38542e-014
rhumerus 29.6503 30.762 -71.6594
rradius 66.1232
rwrist 44.8261
rhand -35.8904 -9.08245
rfingers 7.12502
rthumb -9.00408 -38.8703
lclavicle 5.84427e-014 -2.38542e-014
lhumerus 9.38254 24.9268 62.7993
lradius 62.8082
lwrist -6.88852
lhand -37.1142 40.2993
lfingers 7.12502
lthumb -10.1848 70.0328
rfemur -30.4882 -3.42734 12.2073
rtibia 33.6753
rfoot -9.20127 -5.56266
rtoes 8.66833
lfemur -10.6431 1.83657 -26.0604
ltibia 24.3257
lfoot -16.7258 6.89548
ltoes -8.80699
